<?xml version="1.0" standalone="no"?>
<!DOCTYPE svg PUBLIC "-//W3C//DTD SVG 20010904//EN"
 "http://www.w3.org/TR/2001/REC-SVG-20010904/DTD/svg10.dtd">
<svg version="1.0" xmlns="http://www.w3.org/2000/svg"
 width="2139.000000pt" height="2000.000000pt" viewBox="0 0 2139.000000 2000.000000"
 preserveAspectRatio="xMidYMid meet">

<g transform="translate(0.000000,2000.000000) scale(0.100000,-0.100000)"
fill="#000000" stroke="none">
<path d="M67 19976 c4 -7 1860 -2489 4123 -5515 2263 -3026 4115 -5505 4115
-5510 0 -5 -1838 -1994 -4085 -4422 -2247 -2427 -4109 -4439 -4139 -4471 l-53
-58 938 0 939 1 3618 3909 c1990 2151 3622 3910 3626 3910 5 0 1324 -1759
2932 -3910 l2924 -3910 3183 0 c1750 0 3182 2 3182 3 0 2 -1955 2618 -4345
5813 -2390 3195 -4344 5814 -4343 5821 2 6 1727 1873 3833 4149 2107 2275
3843 4152 3858 4170 l28 34 -935 0 -935 0 -3346 -3615 c-1840 -1988 -3348
-3615 -3350 -3615 -1 0 -1220 1627 -2707 3615 l-2703 3615 -3183 0 c-2682 0
-3182 -2 -3175 -14z m12113 -9987 c3545 -4740 6446 -8623 6448 -8629 3 -7
-481 -10 -1452 -10 l-1455 0 -6450 8625 c-3548 4744 -6451 8627 -6451 8630 0
3 656 5 1458 4 l1457 0 6445 -8620z"/>
</g>
</svg>
